<svg width="32" height="32" viewBox="0 0 32 32" fill="none" xmlns="http://www.w3.org/2000/svg">
<circle cx="16" cy="16" r="16" fill="#009EE2"/>
<g clip-path="url(#clip0)">
<path d="M23.3851 18.677C22.361 18.677 21.3554 18.5131 20.4025 18.1909C19.9356 18.0279 19.3616 18.1774 19.0766 18.4769L17.1958 19.9298C15.0146 18.7383 13.671 17.364 12.5226 15.1488L13.9006 13.2744C14.2587 12.9085 14.3871 12.3741 14.2332 11.8726C13.917 10.8925 13.7563 9.864 13.7563 8.81563C13.7564 8.05828 13.1542 7.44214 12.4141 7.44214H9.34223C8.60214 7.44214 8 8.05828 8 8.81559C8 17.4963 14.9017 24.5584 23.3851 24.5584C24.1252 24.5584 24.7273 23.9423 24.7273 23.185V20.0504C24.7273 19.2932 24.1251 18.677 23.3851 18.677Z" fill="white"/>
</g>
<defs>
<clipPath id="clip0">
<rect width="16.7273" height="17.1163" fill="white" transform="translate(8 7.44214)"/>
</clipPath>
</defs>
</svg>
