<svg width="32" height="32" viewBox="0 0 32 32" fill="none" xmlns="http://www.w3.org/2000/svg">
<path d="M16 32C24.8366 32 32 24.8366 32 16C32 7.16344 24.8366 0 16 0C7.16344 0 0 7.16344 0 16C0 24.8366 7.16344 32 16 32Z" fill="#039BE5"/>
<path d="M7.32181 15.6534L22.7485 9.70537C23.4645 9.4467 24.0898 9.88003 23.8578 10.9627L23.8591 10.9614L21.2325 23.336C21.0378 24.2134 20.5165 24.4267 19.7871 24.0134L15.7871 21.0654L13.8578 22.924C13.6445 23.1374 13.4645 23.3174 13.0511 23.3174L13.3351 19.2467L20.7485 12.5494C21.0711 12.2654 20.6765 12.1054 20.2511 12.388L11.0898 18.156L7.14047 16.924C6.28314 16.652 6.26447 16.0667 7.32181 15.6534Z" fill="white"/>
</svg>
