<svg width="94" height="94" viewBox="0 0 94 94" fill="none" xmlns="http://www.w3.org/2000/svg">
<circle cx="47" cy="47" r="47" fill="#5ABE87"/>
<path d="M48.6949 17.7668C47.7852 16.7444 46.2148 16.7444 45.3051 17.7668L35.6031 28.6726C34.2607 30.1815 35.3054 32.6059 37.2979 32.6059H39.8501C40.0028 32.6059 40.1198 32.7432 40.1198 32.8996V44.6499C40.1198 45.9478 41.1466 47 42.4132 47H51.5868C52.8534 47 53.8802 45.9478 53.8802 44.6499V32.8996C53.8802 32.7432 53.9972 32.6059 54.1499 32.6059H56.7021C58.6946 32.6059 59.7393 30.1815 58.3969 28.6726L48.6949 17.7668Z" fill="white"/>
<path d="M22.1426 67V54.2031H26.625C28.1777 54.2031 29.3555 54.502 30.1582 55.0996C30.9609 55.6914 31.3623 56.5615 31.3623 57.71C31.3623 58.3369 31.2012 58.8906 30.8789 59.3711C30.5566 59.8457 30.1084 60.1943 29.5342 60.417C30.1904 60.5811 30.7061 60.9121 31.0811 61.4102C31.4619 61.9082 31.6523 62.5176 31.6523 63.2383C31.6523 64.4688 31.2598 65.4004 30.4746 66.0332C29.6895 66.666 28.5703 66.9883 27.1172 67H22.1426ZM24.7793 61.4277V64.8818H27.0381C27.6592 64.8818 28.1426 64.7354 28.4883 64.4424C28.8398 64.1436 29.0156 63.7334 29.0156 63.2119C29.0156 62.04 28.4092 61.4453 27.1963 61.4277H24.7793ZM24.7793 59.5645H26.7305C28.0605 59.541 28.7256 59.0107 28.7256 57.9736C28.7256 57.3936 28.5557 56.9775 28.2158 56.7256C27.8818 56.4678 27.3516 56.3389 26.625 56.3389H24.7793V59.5645ZM33.2787 67V57.4902H37.2513C38.5463 57.4902 39.5394 57.7188 40.2308 58.1758C40.9222 58.6328 41.2679 59.2891 41.2679 60.1445C41.2679 60.584 41.1214 60.9795 40.8285 61.3311C40.5414 61.6768 40.1195 61.9434 39.5629 62.1309C40.2425 62.2598 40.7757 62.5146 41.1625 62.8955C41.555 63.2705 41.7513 63.7334 41.7513 64.2842C41.7513 65.1689 41.4173 65.8428 40.7494 66.3057C40.0873 66.7686 39.1234 67 37.8578 67H33.2787ZM35.8187 63.0537V64.9697H37.8666C38.763 64.9697 39.2113 64.6562 39.2113 64.0293C39.2113 63.3906 38.7836 63.0654 37.9281 63.0537H35.8187ZM35.8187 61.3486H37.392C38.2826 61.3369 38.7279 61.0498 38.7279 60.4873C38.7279 60.1416 38.6048 59.8955 38.3588 59.749C38.1185 59.6025 37.7494 59.5293 37.2513 59.5293H35.8187V61.3486ZM47.3239 67.1758C45.9294 67.1758 44.7927 66.748 43.9138 65.8926C43.0407 65.0371 42.6042 63.8975 42.6042 62.4736V62.2275C42.6042 61.2725 42.7888 60.4199 43.1579 59.6699C43.5271 58.9141 44.0486 58.334 44.7224 57.9297C45.4021 57.5195 46.1755 57.3145 47.0427 57.3145C48.3435 57.3145 49.3659 57.7246 50.1101 58.5449C50.8601 59.3652 51.2351 60.5283 51.2351 62.0342V63.0713H45.1794C45.2614 63.6924 45.5075 64.1904 45.9177 64.5654C46.3337 64.9404 46.8581 65.1279 47.4909 65.1279C48.4695 65.1279 49.2341 64.7734 49.7849 64.0645L51.0329 65.4619C50.6521 66.001 50.1364 66.4229 49.4861 66.7275C48.8357 67.0264 48.115 67.1758 47.3239 67.1758ZM47.0339 59.3711C46.53 59.3711 46.1198 59.541 45.8034 59.8809C45.4929 60.2207 45.2937 60.707 45.2058 61.3398H48.739V61.1377C48.7273 60.5752 48.5749 60.1416 48.282 59.8369C47.989 59.5264 47.573 59.3711 47.0339 59.3711ZM60.8858 62.333C60.8858 63.7979 60.5518 64.9727 59.8839 65.8574C59.2218 66.7363 58.3253 67.1758 57.1944 67.1758C56.2335 67.1758 55.4571 66.8418 54.8653 66.1738V70.6562H52.3253V57.4902H54.6807L54.7686 58.4219C55.3839 57.6836 56.1866 57.3145 57.1768 57.3145C58.3487 57.3145 59.2598 57.748 59.9102 58.6152C60.5606 59.4824 60.8858 60.6777 60.8858 62.2012V62.333ZM58.3458 62.1484C58.3458 61.2637 58.1876 60.5811 57.8712 60.1006C57.5606 59.6201 57.1065 59.3799 56.5089 59.3799C55.712 59.3799 55.1641 59.6846 54.8653 60.2939V64.1875C55.1759 64.8145 55.7296 65.1279 56.5264 65.1279C57.7393 65.1279 58.3458 64.1348 58.3458 62.1484ZM65.5883 60.3291L67.1879 57.4902H69.9038L67.1967 62.1484L70.018 67H67.2934L65.5971 64.0117L63.9096 67H61.1762L63.9975 62.1484L61.2993 57.4902H64.0239L65.5883 60.3291Z" fill="white"/>
</svg>
