<svg width="32" height="32" viewBox="0 0 32 32" fill="none" xmlns="http://www.w3.org/2000/svg">
<path d="M16 32C24.8366 32 32 24.8366 32 16C32 7.16344 24.8366 0 16 0C7.16344 0 0 7.16344 0 16C0 24.8366 7.16344 32 16 32Z" fill="#9069AE"/>
<path d="M15.7737 7.07654C15.9234 6.95679 16.0132 6.95679 16.4922 6.95679C16.7317 6.95679 17.091 6.98673 17.3005 7.01668C18.2884 7.13643 18.9171 7.28612 19.7853 7.70522C20.6535 8.12436 21.1924 8.51352 21.9408 9.2021C22.6294 9.86073 22.9887 10.3697 23.4078 11.178C23.9766 12.2856 24.2759 13.573 24.3358 15.01C24.3658 15.4889 24.3358 15.6087 24.2161 15.7584C24.0065 16.0278 23.5275 15.9979 23.3479 15.6686C23.288 15.5788 23.288 15.4889 23.2581 15.0998C23.2281 14.501 23.1982 14.1119 23.1084 13.6329C22.7791 11.8067 21.881 10.3398 20.444 9.29193C19.2465 8.42375 18.1987 8.09445 16.5821 7.9747C16.0133 7.9747 15.9234 7.9747 15.8037 7.85495C15.5642 7.70522 15.5642 7.28609 15.7737 7.07654Z" fill="white"/>
<path d="M18.7384 10.8186C18.1696 10.4893 17.3014 10.2198 16.5231 10.1599C16.2536 10.13 16.074 10.0701 15.9842 9.95039C15.8045 9.8007 15.8045 9.53126 15.9243 9.35165C16.074 9.11215 16.3135 9.08221 17.002 9.20196C18.7384 9.44145 20.0856 10.2498 20.9837 11.5371C21.4926 12.2556 21.792 13.1237 21.8818 14.0219C21.9118 14.3512 21.9118 14.95 21.8818 15.0697C21.8519 15.1595 21.7321 15.3092 21.6124 15.3391C21.4926 15.399 21.2531 15.399 21.1334 15.3092C20.9238 15.1895 20.834 15.0398 20.834 14.5608C20.834 13.8423 20.6544 13.0639 20.2951 12.4651C19.9359 11.7766 19.3971 11.2078 18.7384 10.8186Z" fill="white"/>
<path d="M19.4867 14.7702C19.3071 14.9199 19.0077 14.9199 18.8281 14.7702C18.6784 14.6804 18.6484 14.5607 18.6185 14.2613C18.5886 13.8721 18.4988 13.6027 18.409 13.3632C18.1695 12.8243 17.7204 12.5549 16.972 12.465C16.6127 12.4351 16.5229 12.3752 16.4032 12.2555C16.1936 12.016 16.2834 11.6268 16.5529 11.4771C16.6726 11.4172 16.7026 11.4172 16.9421 11.4472C17.0918 11.4472 17.3013 11.4771 17.4211 11.5071C17.9899 11.6268 18.409 11.8364 18.7982 12.1657C19.2772 12.6147 19.5466 13.1237 19.6364 13.9021C19.6963 14.411 19.6663 14.6205 19.4867 14.7702Z" fill="white"/>
<path d="M24.3066 21.1469C24.3066 20.8774 24.2168 20.6679 24.0372 20.4583C23.8576 20.2488 22.6301 19.2608 22.0314 18.8717C21.5823 18.5723 20.8938 18.1532 20.5944 18.0035C20.1753 17.7939 19.7562 17.764 19.367 17.8837C19.2772 17.9137 19.2173 17.9436 19.1574 17.9735C18.9778 18.0633 18.8281 18.243 18.4689 18.6621C18.2294 18.9615 18.0198 19.2309 17.9899 19.2309C17.9899 19.2309 17.9599 19.2309 17.9599 19.2608C17.93 19.2908 17.8402 19.3207 17.7803 19.3506C17.3911 19.5303 16.8822 19.4105 16.0439 19.0213C15.3853 18.692 14.8165 18.3028 14.1579 17.7041C13.5891 17.1951 13.0202 16.5665 12.7209 16.0575C12.3017 15.3989 12.0024 14.5606 12.0024 14.0816C12.0024 13.8721 12.0922 13.6026 12.182 13.453L12.212 13.423C12.212 13.423 12.212 13.423 12.2419 13.3931C12.2719 13.3631 12.3018 13.3332 12.3317 13.3332C12.4515 13.2434 12.6012 13.0937 12.7508 12.9739C13.4394 12.435 13.5891 12.2554 13.6789 11.956C13.7687 11.6567 13.6789 11.2675 13.3795 10.7286C12.8406 9.74072 11.3437 7.85465 10.8049 7.4954C10.7151 7.43551 10.5654 7.37566 10.4756 7.31577C10.2361 7.25587 9.90676 7.22596 9.72712 7.25587C9.45768 7.31577 9.12838 7.52532 8.37994 8.06417C7.93089 8.39347 7.33212 8.9623 7.18246 9.2018C6.85316 9.77059 6.88307 10.2197 7.27226 11.3274C7.63151 12.3153 8.1105 13.3032 8.64939 14.2612L8.67933 14.2912C8.79908 14.4708 8.91883 14.6804 9.03858 14.86C9.03858 14.8899 9.06852 14.8899 9.06852 14.9198C9.18827 15.0995 9.30802 15.309 9.42777 15.4886C9.48766 15.5485 9.51757 15.6383 9.57746 15.6982C9.66727 15.8479 9.7571 15.9676 9.87685 16.1173C10.0265 16.3269 10.1762 16.5365 10.3558 16.746C12.0623 18.9614 14.0381 20.7576 16.3733 22.2246C16.4032 22.2545 16.4331 22.2545 16.4631 22.2845C16.8223 22.494 17.1815 22.7036 17.5408 22.9132C17.6007 22.9431 17.6306 22.973 17.6905 23.003C18.0497 23.2125 18.4389 23.3922 18.8281 23.5718C18.8581 23.6017 18.9179 23.6017 18.9479 23.6316C19.3371 23.8113 19.7562 23.9909 20.1753 24.1705C20.6842 24.3801 20.8638 24.41 21.253 24.3801C21.4327 24.3801 21.6123 24.3501 21.762 24.2903C22.0015 24.2304 22.211 24.1106 22.4805 23.931C22.5404 23.9011 22.5703 23.8711 22.6302 23.8412C22.69 23.8113 22.7499 23.7514 22.8098 23.6915C23.1391 23.4221 23.4983 23.003 23.7977 22.6138C24.0073 22.3444 24.157 22.0749 24.2468 21.8654C24.2767 21.566 24.3066 21.3564 24.3066 21.1469Z" fill="white"/>
</svg>
